<?xml version="1.0" standalone="no"?>
<!DOCTYPE svg PUBLIC "-//W3C//DTD SVG 20010904//EN"
 "http://www.w3.org/TR/2001/REC-SVG-20010904/DTD/svg10.dtd">
<svg version="1.0" xmlns="http://www.w3.org/2000/svg"
 width="32.000000pt" height="32.000000pt" viewBox="0 0 32.000000 32.000000"
 preserveAspectRatio="xMidYMid meet">
<metadata>
Created by potrace 1.16, written by Peter Selinger 2001-2019
</metadata>
<g transform="translate(0.000000,32.000000) scale(0.100000,-0.100000)"
fill="#000000" stroke="none">
<path d="M120 249 c0 -8 7 -23 15 -33 11 -14 15 -16 15 -5 0 8 -7 23 -15 33
-11 14 -15 16 -15 5z"/>
<path d="M100 221 c0 -5 5 -13 10 -16 6 -3 10 -2 10 4 0 5 -4 13 -10 16 -5 3
-10 2 -10 -4z"/>
<path d="M170 211 c0 -5 5 -13 10 -16 6 -3 10 -2 10 4 0 5 -4 13 -10 16 -5 3
-10 2 -10 -4z"/>
<path d="M70 131 c0 -43 10 -61 39 -73 l26 -11 -25 -7 c-17 -6 -2 -8 45 -8 41
0 60 3 46 7 -23 6 -22 7 18 34 41 27 51 53 29 75 -7 7 -44 12 -95 12 l-83 0 0
-29z m180 -11 c0 -11 -4 -20 -10 -20 -5 0 -10 9 -10 20 0 11 5 20 10 20 6 0
10 -9 10 -20z"/>
</g>
</svg>
